<mxfile host="app.diagrams.net" modified="2023-12-08T19:44:02.085Z" agent="Mozilla/5.0 (Windows NT 10.0; Win64; x64) AppleWebKit/537.36 (KHTML, like Gecko) Chrome/119.0.0.0 Safari/537.36" etag="GKwQdxO8nDqbObg_WGT4" version="22.1.7" type="github">
  <diagram name="Page-1" id="pi0pTZiEYajHm_mTAxj8">
    <mxGraphModel dx="1434" dy="790" grid="1" gridSize="10" guides="1" tooltips="1" connect="1" arrows="1" fold="1" page="1" pageScale="1" pageWidth="850" pageHeight="1100" math="0" shadow="0">
      <root>
        <mxCell id="0" />
        <mxCell id="1" parent="0" />
        <mxCell id="50f0bOyOh84wwCvJf85y-10" style="edgeStyle=orthogonalEdgeStyle;rounded=0;orthogonalLoop=1;jettySize=auto;html=1;" parent="1" target="50f0bOyOh84wwCvJf85y-9" edge="1">
          <mxGeometry relative="1" as="geometry">
            <mxPoint x="160" y="140" as="sourcePoint" />
          </mxGeometry>
        </mxCell>
        <mxCell id="3tHD1LUF8SEcb3xLerfo-6" style="edgeStyle=orthogonalEdgeStyle;rounded=0;orthogonalLoop=1;jettySize=auto;html=1;entryX=0.5;entryY=0;entryDx=0;entryDy=0;" parent="1" source="50f0bOyOh84wwCvJf85y-9" target="3tHD1LUF8SEcb3xLerfo-2" edge="1">
          <mxGeometry relative="1" as="geometry" />
        </mxCell>
        <mxCell id="50f0bOyOh84wwCvJf85y-9" value="&lt;font style=&quot;font-size: 10px;&quot;&gt;hcm-clocking-event-time-evaluation-engine-bff&lt;br&gt;&lt;/font&gt;" style="rounded=0;whiteSpace=wrap;html=1;fillColor=#dae8fc;strokeColor=#6c8ebf;" parent="1" vertex="1">
          <mxGeometry x="40" y="160" width="240" height="80" as="geometry" />
        </mxCell>
        <mxCell id="3tHD1LUF8SEcb3xLerfo-1" value="Usuário clicou no botão verificar na tela de acerto" style="ellipse;whiteSpace=wrap;html=1;aspect=fixed;fillColor=#ffe6cc;strokeColor=#d79b00;" parent="1" vertex="1">
          <mxGeometry x="105" y="30" width="110" height="110" as="geometry" />
        </mxCell>
        <mxCell id="3tHD1LUF8SEcb3xLerfo-7" style="edgeStyle=orthogonalEdgeStyle;rounded=0;orthogonalLoop=1;jettySize=auto;html=1;entryX=0.5;entryY=0;entryDx=0;entryDy=0;" parent="1" source="3tHD1LUF8SEcb3xLerfo-2" target="3tHD1LUF8SEcb3xLerfo-3" edge="1">
          <mxGeometry relative="1" as="geometry" />
        </mxCell>
        <mxCell id="3tHD1LUF8SEcb3xLerfo-2" value="validar input" style="rounded=1;whiteSpace=wrap;html=1;fillColor=#d5e8d4;strokeColor=#82b366;" parent="1" vertex="1">
          <mxGeometry x="80" y="280" width="160" height="80" as="geometry" />
        </mxCell>
        <mxCell id="deAI5rva0JdoIq1QQteX-1" value="true" style="edgeStyle=orthogonalEdgeStyle;rounded=0;orthogonalLoop=1;jettySize=auto;html=1;verticalAlign=middle;entryX=0.5;entryY=0;entryDx=0;entryDy=0;" edge="1" parent="1" source="3tHD1LUF8SEcb3xLerfo-3" target="deAI5rva0JdoIq1QQteX-2">
          <mxGeometry relative="1" as="geometry">
            <mxPoint x="160" y="540" as="targetPoint" />
          </mxGeometry>
        </mxCell>
        <mxCell id="deAI5rva0JdoIq1QQteX-10" style="edgeStyle=orthogonalEdgeStyle;rounded=0;orthogonalLoop=1;jettySize=auto;html=1;entryX=0.5;entryY=0;entryDx=0;entryDy=0;" edge="1" parent="1" source="3tHD1LUF8SEcb3xLerfo-3" target="deAI5rva0JdoIq1QQteX-11">
          <mxGeometry relative="1" as="geometry">
            <mxPoint x="480" y="520" as="targetPoint" />
          </mxGeometry>
        </mxCell>
        <mxCell id="3tHD1LUF8SEcb3xLerfo-3" value="isValid?" style="rhombus;whiteSpace=wrap;html=1;fillColor=#fff2cc;strokeColor=#d6b656;" parent="1" vertex="1">
          <mxGeometry x="120" y="400" width="80" height="80" as="geometry" />
        </mxCell>
        <mxCell id="deAI5rva0JdoIq1QQteX-7" style="edgeStyle=orthogonalEdgeStyle;rounded=0;orthogonalLoop=1;jettySize=auto;html=1;entryX=0.5;entryY=0;entryDx=0;entryDy=0;" edge="1" parent="1" source="deAI5rva0JdoIq1QQteX-2" target="deAI5rva0JdoIq1QQteX-6">
          <mxGeometry relative="1" as="geometry" />
        </mxCell>
        <mxCell id="deAI5rva0JdoIq1QQteX-2" value="setar estado de verificado&lt;br&gt;caso true: seta usuário_verificador = usuario_atual&lt;br&gt;caso false: seta usuário_verificador = null" style="rounded=1;whiteSpace=wrap;html=1;fillColor=#d5e8d4;strokeColor=#82b366;" vertex="1" parent="1">
          <mxGeometry x="40" y="520" width="240" height="120" as="geometry" />
        </mxCell>
        <mxCell id="deAI5rva0JdoIq1QQteX-9" style="edgeStyle=orthogonalEdgeStyle;rounded=0;orthogonalLoop=1;jettySize=auto;html=1;entryX=0.5;entryY=0;entryDx=0;entryDy=0;" edge="1" parent="1" source="deAI5rva0JdoIq1QQteX-6" target="deAI5rva0JdoIq1QQteX-8">
          <mxGeometry relative="1" as="geometry" />
        </mxCell>
        <mxCell id="deAI5rva0JdoIq1QQteX-6" value="salvar log de acerto" style="rounded=1;whiteSpace=wrap;html=1;fillColor=#d5e8d4;strokeColor=#82b366;" vertex="1" parent="1">
          <mxGeometry x="80" y="680" width="160" height="40" as="geometry" />
        </mxCell>
        <mxCell id="deAI5rva0JdoIq1QQteX-16" style="edgeStyle=orthogonalEdgeStyle;rounded=0;orthogonalLoop=1;jettySize=auto;html=1;entryX=0;entryY=0.5;entryDx=0;entryDy=0;" edge="1" parent="1" source="deAI5rva0JdoIq1QQteX-8" target="deAI5rva0JdoIq1QQteX-15">
          <mxGeometry relative="1" as="geometry" />
        </mxCell>
        <mxCell id="deAI5rva0JdoIq1QQteX-8" value="setar o campo time_evaluation_adjustment_log da apuração como true" style="rounded=1;whiteSpace=wrap;html=1;fillColor=#d5e8d4;strokeColor=#82b366;" vertex="1" parent="1">
          <mxGeometry x="40" y="760" width="240" height="80" as="geometry" />
        </mxCell>
        <mxCell id="deAI5rva0JdoIq1QQteX-17" style="edgeStyle=orthogonalEdgeStyle;rounded=0;orthogonalLoop=1;jettySize=auto;html=1;entryX=1;entryY=0.5;entryDx=0;entryDy=0;" edge="1" parent="1" source="deAI5rva0JdoIq1QQteX-11" target="deAI5rva0JdoIq1QQteX-15">
          <mxGeometry relative="1" as="geometry" />
        </mxCell>
        <mxCell id="deAI5rva0JdoIq1QQteX-11" value="retorna mensagem com o erro" style="rounded=1;whiteSpace=wrap;html=1;fillColor=#d5e8d4;strokeColor=#82b366;" vertex="1" parent="1">
          <mxGeometry x="330" y="520" width="160" height="80" as="geometry" />
        </mxCell>
        <mxCell id="deAI5rva0JdoIq1QQteX-15" value="Fim" style="ellipse;whiteSpace=wrap;html=1;aspect=fixed;fillColor=#ffe6cc;strokeColor=#d79b00;" vertex="1" parent="1">
          <mxGeometry x="240" y="910" width="80" height="80" as="geometry" />
        </mxCell>
      </root>
    </mxGraphModel>
  </diagram>
</mxfile>
